REM DIRINDEX 1\6,1\2\7,1\2\8,1\2\9,1\3\10,1\3\11,1\4\12,1\4\13,1\4\14,1\5\15,1\5\16,1\5\17
REM DIRNAME folder01,folder02,folder03,folder04,folder05,folder06,folder07,folder08,folder09,folder10,folder11,folder12,folder13,folder14,folder15,folder16,folder17
TITLE ""
FILE "3Q_t_0691-0706.mp3" MP3
  TRACK 01 AUDIO
    TITLE "10:cjc041_2992"
    INDEX 01 00:00:00
  TRACK 02 AUDIO
    TITLE "0:"
    INDEX 01 00:01:11
  TRACK 03 AUDIO
    TITLE "11:cjc041_2993"
    INDEX 01 00:01:69
  TRACK 04 AUDIO
    TITLE "0:"
    INDEX 01 00:04:31
  TRACK 05 AUDIO
    TITLE "10:cjc041_2994"
    INDEX 01 00:05:14
  TRACK 06 AUDIO
    TITLE "0:"
    INDEX 01 00:06:41
  TRACK 07 AUDIO
    TITLE "11:cjc041_2995"
    INDEX 01 00:07:17
  TRACK 08 AUDIO
    TITLE "0:"
    INDEX 01 00:10:12
  TRACK 09 AUDIO
    TITLE "10:cjc041_2996"
    INDEX 01 00:10:68
  TRACK 10 AUDIO
    TITLE "0:"
    INDEX 01 00:12:03
  TRACK 11 AUDIO
    TITLE "11:cjc041_2997"
    INDEX 01 00:12:60
  TRACK 12 AUDIO
    TITLE "0:"
    INDEX 01 00:14:51
  TRACK 13 AUDIO
    TITLE "10:cjc041_2998"
    INDEX 01 00:15:30
  TRACK 14 AUDIO
    TITLE "0:"
    INDEX 01 00:16:48
  TRACK 15 AUDIO
    TITLE "11:cjc041_2999"
    INDEX 01 00:17:25
  TRACK 16 AUDIO
    TITLE "0:"
    INDEX 01 00:19:46
  TRACK 17 AUDIO
    TITLE "10:cjc041_3000"
    INDEX 01 00:20:22
  TRACK 18 AUDIO
    TITLE "0:"
    INDEX 01 00:21:33
  TRACK 19 AUDIO
    TITLE "11:cjc041_3001"
    INDEX 01 00:22:13
  TRACK 20 AUDIO
    TITLE "0:"
    INDEX 01 00:22:72
  TRACK 21 AUDIO
    TITLE "10:cjc041_3002"
    INDEX 01 00:23:61
  TRACK 22 AUDIO
    TITLE "0:"
    INDEX 01 00:24:72
  TRACK 23 AUDIO
    TITLE "11:cjc041_3003"
    INDEX 01 00:25:52
  TRACK 24 AUDIO
    TITLE "0:"
    INDEX 01 00:28:51
  TRACK 25 AUDIO
    TITLE "10:cjc041_3004"
    INDEX 01 00:29:31
  TRACK 26 AUDIO
    TITLE "0:"
    INDEX 01 00:30:55
  TRACK 27 AUDIO
    TITLE "11:cjc041_3005"
    INDEX 01 00:31:33
  TRACK 28 AUDIO
    TITLE "0:"
    INDEX 01 00:32:23
  TRACK 29 AUDIO
    TITLE "10:cjc041_3006"
    INDEX 01 00:32:74
  TRACK 30 AUDIO
    TITLE "0:"
    INDEX 01 00:34:20
  TRACK 31 AUDIO
    TITLE "11:cjc041_3007"
    INDEX 01 00:34:71
  TRACK 32 AUDIO
    TITLE "0:"
    INDEX 01 00:35:63
  TRACK 33 AUDIO
    TITLE "10:cjc041_3008"
    INDEX 01 00:36:44
  TRACK 34 AUDIO
    TITLE "0:"
    INDEX 01 00:38:04
  TRACK 35 AUDIO
    TITLE "11:cjc041_3009"
    INDEX 01 00:38:65
  TRACK 36 AUDIO
    TITLE "0:"
    INDEX 01 00:40:15
  TRACK 37 AUDIO
    TITLE "10:cjc041_3010"
    INDEX 01 00:40:70
  TRACK 38 AUDIO
    TITLE "0:"
    INDEX 01 00:42:10
  TRACK 39 AUDIO
    TITLE "11:cjc041_3011"
    INDEX 01 00:42:65
  TRACK 40 AUDIO
    TITLE "0:"
    INDEX 01 00:44:67
  TRACK 41 AUDIO
    TITLE "10:cjc041_3012"
    INDEX 01 00:45:41
  TRACK 42 AUDIO
    TITLE "0:"
    INDEX 01 00:46:56
  TRACK 43 AUDIO
    TITLE "11:cjc041_3013"
    INDEX 01 00:47:40
  TRACK 44 AUDIO
    TITLE "0:"
    INDEX 01 00:49:57
  TRACK 45 AUDIO
    TITLE "10:cjc041_3014"
    INDEX 01 00:50:37
  TRACK 46 AUDIO
    TITLE "0:"
    INDEX 01 00:51:58
  TRACK 47 AUDIO
    TITLE "11:cjc041_3015"
    INDEX 01 00:52:36
  TRACK 48 AUDIO
    TITLE "0:"
    INDEX 01 00:53:43
  TRACK 49 AUDIO
    TITLE "10:cjc041_3016"
    INDEX 01 00:54:21
  TRACK 50 AUDIO
    TITLE "0:"
    INDEX 01 00:55:38
  TRACK 51 AUDIO
    TITLE "11:cjc041_3017"
    INDEX 01 00:56:18
  TRACK 52 AUDIO
    TITLE "0:"
    INDEX 01 00:59:45
  TRACK 53 AUDIO
    TITLE "10:cjc041_3018"
    INDEX 01 01:00:23
  TRACK 54 AUDIO
    TITLE "0:"
    INDEX 01 01:01:46
  TRACK 55 AUDIO
    TITLE "11:cjc041_3019"
    INDEX 01 01:02:26
  TRACK 56 AUDIO
    TITLE "0:"
    INDEX 01 01:04:52
  TRACK 57 AUDIO
    TITLE "10:cjc041_3020"
    INDEX 01 01:05:30
  TRACK 58 AUDIO
    TITLE "0:"
    INDEX 01 01:06:63
  TRACK 59 AUDIO
    TITLE "11:cjc041_3021"
    INDEX 01 01:07:39
  TRACK 60 AUDIO
    TITLE "0:"
    INDEX 01 01:10:12
  TRACK 61 AUDIO
    TITLE "10:cjc041_3022"
    INDEX 01 01:10:63
  TRACK 62 AUDIO
    TITLE "0:"
    INDEX 01 01:12:05
  TRACK 63 AUDIO
    TITLE "11:cjc041_3023"
    INDEX 01 01:12:58
  TRACK 64 AUDIO
    TITLE "0:"
    INDEX 01 01:13:59
